<?xml version="1.0" encoding="UTF-8"?>
<svg id="Capa_2" data-name="Capa 2" xmlns="http://www.w3.org/2000/svg" viewBox="0 0 61.65 116.68">
  <defs>
    <style>
      .cls-1 {
        fill: #662d91;
      }
    </style>
  </defs>
  <g id="Capa_1-2" data-name="Capa 1">
    <path d="M39.95,55.81c-2.12-.31-2.47-2.86-1.79-4.41,1.24-2.83,1.53-5.99-1.63-7.18l-18.31.09.32-44.31-5.83.24L2.61.56v58.31s13.42.23,13.42.23"/>
    <path class="cls-1" d="M39.95,55.81c7.33,1.06,10.53,6.92,14.08,12.58-1,.61-1.89,1.36-2.48,2.41-.17.31-.29.62-.4.94l-7.49,4.61c-5.36-6.52-13.45-7.9-20.18-4.02-6.55,3.77-9.52,11.92-6.7,19.29,2.12,5.53,7.07,9.15,12.41,9.83,5.82.75,11.81-1.42,14.86-7.84l-14.73-.21.21-12.72,21.91-.06v-.35c.32.11.67.17,1.07.12,3.71-.39,7.81-.56,8.82,3.74.87,3.71-.15,8.01-.73,11.69-.7,4.46-1.71,9.43-1.12,13.99-.3-.26-.6-.53-.9-.82l-.42,6.11-12.27.1-.24-3.84c-6.37,4.74-5.6,2.87-11.12,5.3h-7.5c-13.32-2.66-23.08-11.72-27-24.75v-12c2.91-8.68,7.61-15.92,16.03-20.84,0,0,10.95-6.12,22.5-3.49.35.08,1.41.2,1.41.2Z"/>
  </g>
</svg>