<?xml version="1.0" encoding="UTF-8"?>
<svg version="1.1" xmlns="http://www.w3.org/2000/svg" width="124" height="234">
<path d="M0 0 C1.05380859 0.00322266 2.10761719 0.00644531 3.19335938 0.00976562 C4.26263672 0.01814453 5.33191406 0.02652344 6.43359375 0.03515625 C8.0897168 0.04192383 8.0897168 0.04192383 9.77929688 0.04882812 C12.47662075 0.06050485 15.17382722 0.076881 17.87109375 0.09765625 C17.89424114 11.12846336 17.91202111 22.15926471 17.92290592 33.19009113 C17.92812948 38.31187611 17.93521763 43.43364449 17.9465332 48.55541992 C17.95738072 53.49613293 17.96337456 58.43682995 17.96597099 63.37755394 C17.96782187 65.26464273 17.97143604 67.15173063 17.97682381 69.03881264 C17.98405893 71.67734304 17.98508364 74.31580701 17.98461914 76.9543457 C17.98821442 77.73837265 17.99180969 78.5223996 17.99551392 79.33018494 C17.98941397 82.52213345 17.88816996 85.04642761 16.87109375 88.09765625 C18.0012793 88.07670898 19.13146484 88.05576172 20.29589844 88.03417969 C24.49270944 87.96172929 28.68946527 87.91583841 32.88671875 87.87792969 C34.70256855 87.85782564 36.5183537 87.8305379 38.33398438 87.79589844 C40.9454748 87.74732586 43.55610873 87.72467598 46.16796875 87.70703125 C46.97852722 87.68638611 47.78908569 87.66574097 48.62420654 87.64447021 C52.22810065 87.64303847 54.41719985 87.77510186 57.39550781 89.89160156 C60.8481482 95.05342462 58.6350786 103.20405887 57.87109375 109.09765625 C59.02609375 109.51015625 60.18109375 109.92265625 61.37109375 110.34765625 C74.20903242 115.23829955 82.50563268 122.56123431 88.87109375 135.09765625 C88.5654545 138.51846475 87.38571909 139.85245506 84.87109375 142.09765625 C84.19046875 142.86078125 83.50984375 143.62390625 82.80859375 144.41015625 C78.93578687 147.95336254 74.7079313 151.0056257 69.87109375 153.09765625 C66.28421234 152.87861006 64.3370024 151.01357738 61.68359375 148.72265625 C55.16131039 143.53253861 48.76731688 141.46086757 40.41796875 141.74609375 C32.35130708 142.85958999 24.28250818 146.81960074 19.1796875 153.21875 C14.11751863 160.8424983 12.00006326 169.1110161 13.37109375 178.22265625 C15.28069957 185.69293815 18.83269134 192.03845087 25.18359375 196.53515625 C33.16773381 201.25609669 40.97834764 203.49013021 50.19140625 201.62890625 C58.1070125 199.37497091 62.76443734 195.09138199 66.87109375 188.09765625 C66.05842041 188.10289307 65.24574707 188.10812988 64.40844727 188.11352539 C60.75017053 188.13422619 57.09190608 188.14729428 53.43359375 188.16015625 C52.15419922 188.16853516 50.87480469 188.17691406 49.55664062 188.18554688 C48.34169922 188.18876953 47.12675781 188.19199219 45.875 188.1953125 C44.18612671 188.20316772 44.18612671 188.20316772 42.46313477 188.21118164 C39.87109375 188.09765625 39.87109375 188.09765625 38.87109375 187.09765625 C38.78361168 185.17098118 38.76412041 183.24113764 38.7734375 181.3125 C38.77666016 180.14267578 38.77988281 178.97285156 38.78320312 177.76757812 C38.79577148 175.9200293 38.79577148 175.9200293 38.80859375 174.03515625 C38.81310547 172.79958984 38.81761719 171.56402344 38.82226562 170.29101562 C38.83409767 167.22651508 38.85058202 164.16210904 38.87109375 161.09765625 C46.19895375 160.89699178 53.52703496 160.71332975 60.85585213 160.55106831 C64.25931777 160.47518684 67.6624392 160.39356354 71.06542969 160.29858398 C74.98208744 160.18952408 78.8990938 160.10585849 82.81640625 160.0234375 C84.64016281 159.96740105 84.64016281 159.96740105 86.50076294 159.91023254 C97.0859361 159.72235135 97.0859361 159.72235135 101.87109375 163.09765625 C104.67447936 166.57159231 104.21320538 170.95174844 104.18359375 175.22265625 C104.18157959 176.01599365 104.17956543 176.80933105 104.17749023 177.62670898 C104.07219057 184.01846189 103.19889413 190.10477949 102.015625 196.375 C100.56056027 204.24620728 100.16430078 212.11029245 99.87109375 220.09765625 C99.21109375 220.09765625 98.55109375 220.09765625 97.87109375 220.09765625 C97.89171875 221.35578125 97.91234375 222.61390625 97.93359375 223.91015625 C97.97995458 226.73816712 97.78802336 228.34686741 96.87109375 231.09765625 C88.62109375 231.09765625 80.37109375 231.09765625 71.87109375 231.09765625 C71.54109375 229.11765625 71.21109375 227.13765625 70.87109375 225.09765625 C69.26234375 226.21140625 69.26234375 226.21140625 67.62109375 227.34765625 C56.05100468 234.41044106 43.02810454 236.17326 29.74511719 233.70214844 C11.36241444 229.23841672 -3.04070916 217.80723145 -13.12890625 202.09765625 C-20.95066113 187.74384042 -23.74279823 169.5075991 -19.03515625 153.484375 C-17.63001639 150.12474539 -16.09174573 147.16107239 -14.12890625 144.09765625 C-13.29939453 142.74607422 -13.29939453 142.74607422 -12.453125 141.3671875 C-6.79362101 132.76734351 -0.50978021 126.0839948 7.87109375 120.09765625 C-3.51390625 119.10765625 -3.51390625 119.10765625 -15.12890625 118.09765625 C-15.12890625 79.48765625 -15.12890625 40.87765625 -15.12890625 1.09765625 C-5.00390625 -0.02734375 -5.00390625 -0.02734375 0 0 Z " fill="#000000" transform="translate(20.12890625,-0.09765625)"/>
</svg>
