<svg xmlns="http://www.w3.org/2000/svg" id="Capa_2" data-name="Capa 2" viewBox="0 0 912.6 320.77">
  <defs>
    <style>
      .cls-1{fill:#a585b0}.cls-2{fill:#a882b8}
    </style>
  </defs>
  <g id="Capa_1-2" data-name="Capa 1">
    <path d="M178.96 303.45c-17.42 15.42-35.8 24.34-56.33 10.36-11.14-7.59-20.56-16.12-29.99-26.1-29.39-31.08-52.16-66.99-69.68-106.1-9.12-20.36-16.21-40.46-20.43-62.31-6.67-34.5-1.04-67.9 27.93-89.25C43.8 20.22 58.21 13.59 74.55 9.19c44.86-12.08 92.22-12.28 137.16-.46 16.24 4.27 30.59 10.64 43.94 20.04 25.49 17.94 35.33 46.05 31.75 76.72-2.58 22.15-8.63 42.91-17.06 63.6-20.24 49.66-51.23 98.81-91.39 134.36Zm-18.36 8.14c11.29-7.17 20.58-15.31 29.67-24.81 25.95-27.13 46.83-57.72 63.44-91.39 13.65-27.66 25.13-57.24 29.11-87.86 7.16-55.01-27.86-84.5-78.6-96.4-39.15-9.18-79.77-9.27-118.97-.38-29.39 6.67-61.02 21.47-73.87 49.21-6.9 14.9-8.58 31.24-6.31 47.55 1.89 13.57 4.5 26.08 8.95 39.19 17.26 50.82 44.26 97.59 80.57 137 9.48 10.29 19.28 18.91 30.58 26.58s23.85 8.67 35.42 1.32ZM750.52 190.23l-17.71 42.39c-.43 1.04-1.01 2.26-1.49 2.81-.6.68-3.14-1.07-3.39-1.66l-16.76-42.02c-1.67 12.91-1.82 23.82-1.66 35.81.04 3.27 2.95 5.85 6.45 5.39l.63 3.11-18.65.07.23-2.99c3.14-.66 5.75-3.45 5.93-6.72l2.18-39.8c.18-3.23-3.02-5.88-6.05-5.56l-.23-2.55 15.75-.34 17.57 40.93 17.45-40.66 15.77-.05c.02 1.18.14 2.08-.2 2.13l-2.28.37c-1.87.3-4.33 3.11-4.24 5.63l1.44 40.72c.11 3.01 3.3 5.61 6.01 5.89l.26 2.93-22.29.02.07-2.74c.01-.39.73-.39 1.9-.56 1.56-.47 4.14-3.07 4.1-5.04l-.8-37.51ZM618.51 124.43l-.22 19.18c-.07 6.5 7.1 6.19 7.11 6.88l.02 2.21h-24.87l.16-3.04c3.48.41 6.54-1.85 6.54-5.14l.03-49.01c0-3.32-2.71-5.65-6.21-5.56v-3.02l32.37.29c7.19.06 13.62 4.84 15.28 11.19 2.63 10.06-1.15 18.18-11.61 22.39 4.58 9.33 9.64 17.93 15.4 26.1l6.23 5.95c-6.48 1.02-13.79.73-18.35-3.82-11.74-11.72-10.8-30.1-21.87-24.62Zm15.33-8.47c4.43-4.38 4.7-11.76 2.77-17.07-2.49-6.87-11.82-10.37-18-6.64l-.41 27.5c4.98.32 11.57.23 15.64-3.8ZM678.27 123.34l-.3 20.3c-.04 2.75 2.46 5.36 4.8 6.06l2.08.63c.58.18-.55 2.47-1.35 2.46l-22.96-.17c-1.44-3.49 6.3-2.55 6.3-8.16l-.03-48.79c0-3.05-2.98-5.77-6.02-6.1l-.3-2.63 31.83.29c6.9.06 14.07 4.49 15.75 10.66 2.76 10.14-1.35 19.04-11.64 22.82l16.1 27.12c2.21 1.38 4.11 2.72 6 4.97-19.8 3.62-22.64-9.57-31.56-25.2-1.75-3.06-2.68-4.77-8.7-4.26m14.75-7.35c5.37-5.13 5.44-15.09 1.06-20.39-3.81-4.61-9.61-5.45-15.67-4.08l-.36 27.96c5.14.41 10.83.46 14.97-3.49M775.77 143.61c-7.12 8.87-17.55 11.83-28 10.7-9.02-.97-19.31-5.89-24.43-15.27-6.63-12.15-6.58-28.69 1.8-40.5 11.08-15.61 36.32-17.99 49.62-3.9 12.47 13.2 12.14 35.12 1.01 48.97m-30.39 5.03c8.94 4.08 18.44.45 22.37-8.6 9.31-21.48.58-52.1-18.17-50.58-17.46 1.41-20.84 22.74-17.39 40.75 1.49 7.78 5.46 14.91 13.2 18.44ZM369.34 127.96c-.29-2.38-4.88-3.7-7.66-3.25l.1-3.2 25.55.22c-5.3 4.58-6.77 5.67-6.63 10.94l.44 17.95-16.36 3.56c-12.17 2.65-31.09-4.27-36.4-15.85-4.73-10.31-5.5-23.05-1.05-33.59 4.91-11.65 17.26-18.24 29.55-19.02 7.87-.49 14.97.89 22.84 2.24l1.74 16.8-3.87.02c-1.47-3.68-3.08-9.05-6.25-11.3-11.17-7.92-26.35-3.41-31.45 8.95-7.88 19.08-2.05 45.1 18.61 47.78 3.02.39 9.65-.41 10.41-3.54 1.53-6.25 1.22-12.36.45-18.72ZM612.53 236.19l-24.25-.22c-1.67-4.54 6.3-1.61 6.3-7.26v-43.27c0-2.69-2.53-4.62-5.45-4.5v-2.61l23.92-.13c8.05-.04 16.47 1.31 22.79 6.51 8.04 6.62 10.41 17.58 8.75 27.57-2.57 15.51-16.72 24.05-32.06 23.91m-2.77-3.98c9.07 1.53 16.77-2.54 20.64-10.37 5.22-10.54 4.96-24.53-2.94-33.71-5.54-6.44-14.49-7.73-22.81-5.49l-.11 43.97c0 2.23 2.86 5.19 5.22 5.59ZM451.03 86.99c.52 0 1.5 2.63 1.4 2.92-3.65-.31-6.85 1.84-6.95 5.61l-1.05 36.57c-.28 9.92-5.94 18.59-15.53 21.16-8.09 2.17-16.69 1.52-23.57-3.06s-8.9-11.94-8.93-19.56l-.11-34.16c-.02-7.56-7.68-4.92-6.84-9.41l24.15-.14.22 2.62c-4 .3-6.4 3.02-6.37 6.97l.35 35.95c.08 8.51 7.3 14.88 14.68 15.44 8.15.62 15.72-4.58 16.72-13.52 1.35-11.99 1-24.16.69-36.27-.11-4.28-1.75-7.55-6.09-8.39.11-.4 1.01-2.6 1.42-2.6l15.8-.13ZM577.87 144.17l-5.04-13.86-20.61-.25-4.43 13.76c-1.61 4.99 4.15 5.34 5.92 7.39.33.38-.89 1.66-1.44 1.65l-16.99-.2c-.35 0-1.82-1.59-1.5-1.8l2.09-1.37c1.23-.81 4.51-2.51 5.12-4.07l8.43-21.53 12.66-34.32c1-2.72 3.88-5.19 6.47-4.04l13.23 35.97 9.07 24.07c1.35 3.57 6.79 3.85 6.77 4.06l-.16 3.06H574.3c-.83-.04-1.18-2.67-.52-2.9l3.61-1.28c.78-.27.85-3.32.48-4.34m-6.93-19.35-8.44-23.66-8.32 23.81zM871.98 150.43l-1.99-13.79c-.07-.52-.22-2.43.19-2.53l3.17-.78c1.05 7.3 5.82 13.5 12.84 16.11 4.53 1.68 9.52.56 12.42-2.7s3.99-8.81 1.35-13.46c-4.59-8.1-16.96-9.99-23.84-16.85-5.2-5.18-6.09-14.42-2.98-20.64 5.65-11.31 21.7-11.46 34.14-8.35l1.64 15.66-2.98-.44c-1.69-3.81-3.74-7.64-6.67-10.25-4.5-4.01-10.48-3.81-14.34-.26-4.11 3.78-4.98 10.6-.48 15.16 9.44 9.58 28.54 9.65 28.15 27.76-.18 8.1-5.59 15.42-14.14 18.09-8.73 2.72-17.99.82-26.47-2.73ZM792.78 150.62l-2.21-16.42 3.99-.33c1.71 6.82 5.4 12.67 11.84 15.26 4.62 1.86 10.3 1.39 13.36-2.75 4.5-6.11 2.64-15-4.05-18.61l-12.29-6.64c-6.07-3.28-10.58-8.47-11.05-14.36-.55-6.96 1.02-13.82 7.3-17.46 8.52-4.94 18.6-4.23 27.96-1.38l2.4 13.29c.12.66-2.17 2.22-2.64 1.8-2.38-2.14-5.03-16.09-17.88-12.91-3.88.96-6.68 4.81-7.08 7.97-.55 4.37.8 9.01 4.81 11.25l14.64 8.16c7.43 4.14 11.96 10.26 11.46 18.07-.54 8.29-5.59 14.74-14 17.38-8.58 2.7-17.29 1.34-26.57-2.34ZM666.55 207.93l-.21 18.78c-.01 1.2.82 3.72 1.72 4.38 2.27 1.66 12.37 2.12 17.39-.26 4.38-2.07 4.26-12.03 9.21-10.05l-2.88 15.12-38.88.32c-.77 0-2.73-.61-2.69-1.3.19-3.12 6.2-1.31 6.24-8.31l.19-37.08c.03-5.44-1.5-6.47-7.06-10.9l39.96-.42.81 13.18-2.67-.12c-.98-.04-1.13-8.97-9.53-9.3l-11.77-.46-.09 21.79 10.94.38c4.81.17 5.64-6.78 5.54-6.76l2.74-.48-.2 19.13c-2.98-2.75-3.17-3.63-4.95-7.1l-13.82-.55ZM449.58 215.84l-17.56-.29-4.32 12.39c-.58 1.66 1.1 4.67 2.59 5.06l2.16.57c.36.09.29 1.17.32 2.45l-17.92.07.34-3.22c3.38-.21 5.83-2.01 7.06-5.18l18.15-46.77c.95-2.46 3.5-4.33 5.53-3.7l18.92 50.25c1.33 3.54 3.7 5.39 7.47 5.84l-.13 2.77-20.75.05c-.71 0-2.23-1.97-1.73-2.24l2.36-1.26c.99-.53 2.75-2.81 2.32-3.95l-4.81-12.86Zm-1.75-4.54-6.99-19.9-7.35 19.92 14.35-.02ZM562.84 215.7l-17.93-.13-4.17 11.99c-2.09 6 6.38 3.84 5.13 8.45l-17.65.02c-1.42-5.02 4.64-1.7 7.42-8.89l18.09-46.89c.36-.93 1.33-2.17 1.93-2.71s3.46.06 3.77.87l18.39 48.75c1.35 3.58 3.51 5.21 6.89 5.98l.17 2.99-21.8-.11c.06-2.92 1.27-3.7 5.08-4.22l-5.31-16.09Zm-1.7-4.21-7.13-20.91-7.93 20.97 15.05-.06ZM494.31 229.89c4.93 4.24 13.24 4.44 18.68 1.73 5.31-2.65 7.02-7.83 11.4-13.03 1.01 5.9-1.13 10.53-2.64 15.97-15.85 5.71-36.94 2.55-44.44-11.18-7.61-13.94-4.13-32.38 9.26-40.94 10.84-6.93 22.74-6.07 35.68-2.91l1.64 14.47-2.32.48c-.07.01-4.4-14.98-17.53-13.89-10.19.85-17.17 8.68-18.86 18.48-1.89 10.94-.09 22.9 9.12 30.82ZM800.88 227.25c.01 2.36 2.83 5.49 4.47 5.94 1.37-.13 2.22-.28 2.19.19l-.16 2.7-23.02-.03.1-2.74c.02-.64 6.18-.74 6.26-4.04.14-5.6.74-12.71-.48-18.08-1.19-5.23-5.1-9.71-7.53-14.33-2.74-5.23-4.94-10.89-9.25-14.9-1.08-1-3.66-1.38-3.69-3.43l22.72-.25c-.64 2.3-1.9 2.95-5.43 3.83 3.28 8.02 6.87 15.38 11.94 23.64l10.25-20.31c.48-.95-1.25-3.83-2.32-3.98-.86-.11-2.63-.14-2.62-.72l.03-2.59 17 .05c1.51 2.34-2.48 2.58-3.23 3.52-7 8.84-12.9 19.44-17.34 29.84l.1 15.7ZM480.69 152.64l-24.38.11.18-2.86c3.32.16 6.6-2.53 6.62-6.38l.17-46.99c.01-3.52-2.91-6.33-5.89-6.61-.6-.16-.85-2.68-.38-2.89l23.17.05.24 1.77c.16 1.14-6.08 1.16-6.08 7.6l.02 48.23c0 5.56 7.58 3.73 6.33 7.96ZM518.16 152.03l-2.14-3.68.23-53.85c0-1.52.6-2.94 1.53-5.97l-10.39.88c-.42.78.61 1.92 2.39 2.75l.27 53.47c.01 2.72-2 4.66-4.15 5.42l9.61 1.01-13.44.72c-.66.01-2.77-1.33-2.35-1.75 2.21-2.2 7.3-1.73 7.3-7.59l.03-51.97c-3.5-.32-7.69-.47-10.67.28-5.46 1.36-6.95 6.9-7.17 11.26-1.54.04-3.72.27-3.71-.45l.05-2.94 1.28-15.13 6.05 2.44 35.18.15c3.3.01 6.55-1.25 10.08-2.76l1.92 18.5-3.38.45c-1.3.17-.11-12.62-11.84-12.3-1.89.05-4.84.53-6.52 1.34l.03 50.27c0 7.29 7.23 7.32 7.22 7.78l-.04 2.72-7.36-1.04ZM856.47 143.65c0 6.5 8.38 4.93 6.84 9.35l-25.67-.42c2.24-4.54 5.18-2.9 6.03-4.14 1.42-2.08 1.47-4.61 1.47-6.84V94.53c0-2.78-2.96-4.8-5.85-4.65l-.36-2.91 24.84.05c.16 3.75-7.31 3-7.31 8.46v48.17Zm-1.79 7.68c-1.21-3.11-.81-3.06-.81-4.95l.17-57.44h-7.07v53.66l-.9 9.2z" class="cls-1"/>
    <path d="m518.16 152.03-2.67.04-9.61-1.01c2.14-.76 4.16-2.7 4.15-5.42l-.27-53.47c-1.78-.83-2.81-1.97-2.39-2.75l10.39-.88c-.93 3.03-1.52 4.45-1.53 5.97l-.23 53.85 2.14 3.68ZM854.68 151.33l-8.61.47.9-9.2V88.96l7.07-.01-.17 57.44c0 1.89-.4 1.84.81 4.95ZM207.12 16.83c.47-.22 1.34-.7 1.62-.62 3.3 3.37 8.84 5.13 14.49 6.22l5.38.71c13.01 5.64 25.02 12.55 34.49 23.34 23.74 27.04 18.29 63.99 7.65 97.03-13.34 41.44-34.09 79.74-60.45 114.24-9.62 12.59-19.71 23.33-30.92 34.23-6.55 6.37-13.64 11.8-21.42 16.58-8.19 5.04-18.27 5.41-26.74.67-18.48-10.34-39.73-33.4-53.17-50.89-23.36-30.39-41.95-63.37-55.55-99.3C11.66 130.41.7 88.92 14.7 62.17l3.11-5.94.69-1.22c5.41-2.63 9.17-7.69 12.9-13.04l2.44-3.95 1.23-.9 4.61-.25c.94-.2 1.09-2.95 1.02-3.84.15-.11 1.68.1 1.93.1 6.48-2.06 10.07-6.82 16.93-7.84 5.87-3.57 12.18-5.12 18.58-6.91 7.43-2.08 14.79-4.23 22.57-5.09l30.56-3.34c8.24-.9 16.95-.63 25.17.04l13.69 1.11c12.54 1.01 24.92 3.75 37 5.72ZM75.06 161.18l2.24-.1c-.14 1.26 1.23 3.38 2.21 4.49.85.96 3.96 0 5.31.33 6.35 1.55 12.6 2.37 19.03 1.91l13.14-.94c4.75-.34 8.64-1.42 13.21-2.96 1.91-.64 5.77-1.68 6.46-3.39l.95-19.93.9-13.88 7.77-7.06-4.25-6.35-33.21.42c-3.76.05-7.31 5.33-7.73 8.13l5.49 3.94c1.56.08 4.58.05 5.94.77 3.68 1.95 4.65 17.75 2.34 26.74l-6.73 3.51c-2.55 1.33-8.02 1.94-10.48 1.41-1.5-2.34-2.39-3.14-4.45-3.72l-8.38-2.35c-1.47-2.59-2.33-3.84-3.78-5.59l-4.61-5.52c-2.78-3.34-2.52-6.92-3.31-10.68-1.03-4.88-3.91-10.1-3.59-15.04l.75-11.58c7.87-6.53-1.06-15.27 8.09-16.81l2.86-7.17c9.28-3.18 10.05-7.87 18.86-7.54l14.14-.26 2.04 1.17c.59 4.68 6.17 6.47 9.46 14.45.62 1.5.34 5.96 1.78 6.63 1.53.71 4.51 1.04 6.56.61 1.15-.24 3.29-2.64 3.16-3.78-.16-1.33-1.69-3.15-3.15-3.62l-.29-1.89c1.16-6.96.99-17.75-2.22-19.26l-9.64-4.54-25.7-.24c-6.44-.06-13.25 4.36-19.49 5.13-4.19.52-6.33 1.76-9.23 4.49s-6.62 5.46-8.97 9.05l-5.55 8.48c-3.92 5.99-.75 8.69-3.61 11.09-2.54 2.12-1.34 4.03-1.38 6.4-.28 14.26 1.03 28.37 8.4 41.12l3.9 2.79c2.25 6.26 9.89 11.49 14.77 11.13Zm89.89-48.72c-.03.21.22 1.16.24 1.21l-4.64 4.92-1.99 8.42c-.13.55-.89 2.13-1.36 2.13h-1.75l-1.34 11.82.38.38-6.73 12.28c-3.79 8.49-4.36 13.06-6.84 18.85l-6.78 15.77-3.54 7.21c-4.36-.85-9.85 1.58-11.23 5.12-.26.67-.29 2.72.23 2.93l2.54 1.02h.9l2.7 2.1 29.45-.07.95-2.07-.03-.48 4.2-2.84-5.27-5.1-5.37-.67c-1.63-4.28-1.12-9.5 1.33-13.6l3.39-5.65c.65-1.08 1.33-4.42 2.53-4.41 2.24.02 5.1-1.47 6.55-2.53 5.53-.72 12.23-.64 18.69-.63 4.81 8.96 11.79 24.64 6.64 27.31-2.51 1.31-4.49 2.74-4.98 4.23s.88 5.74 2.44 6.33l34.72.16c1.15 0 3.39-1.36 4-2l1.01-.96c.67-.09 2.26-.88 2.16-1.62-.13-.95-1.34-2.83-2.16-2.35v-.79c0-.74-1.17-1.92-1.98-2.17l-6.15-1.92c-1.68-1.69-3.22-3.08-4.77-3.35l.2-.93c1.08-2.7-.87-5.07-2.21-7.91l-4.37-7.81-1.16-2.11 1.25-1.7-2.65-6.01-3.36-14.8c-.94-4.12-4.34-6.9-5.55-11.27l-2.84-10.25-3.11-6.62-5.63-14.32c-.26-.65.19-2.88-.37-2.98l-2.53-.24.03-.64-1.17-7.71-11.39 2.13c-1.39 4.28-2.82 10.56-3.27 14.19Z" class="cls-2"/>
    <path d="M207.12 16.83c-12.08-1.98-24.45-4.71-37-5.72L156.43 10c-8.21-.66-16.93-.94-25.17-.04L100.7 13.3c-7.79.85-15.14 3.01-22.57 5.09-6.4 1.79-12.7 3.34-18.58 6.91-6.86 1.03-10.45 5.78-16.93 7.84 22.13-15.39 51.81-21.92 79.83-24.05 14.03-1.07 27.94-.48 42.02-.29 14.25 1.57 27.68 3.5 41.47 6.56l1.18 1.48ZM18.5 55.01c4.18-6.45 9.42-12.38 15.34-16.99l-2.44 3.95c-3.73 5.35-7.49 10.41-12.9 13.04M228.61 23.13l-5.38-.71c-5.65-1.08-11.2-2.85-14.49-6.22 5.09 1.35 14 4.38 19.87 6.92ZM40.69 33.04c.07.9-.07 3.65-1.02 3.84l-4.61.25 5.62-4.09ZM14.7 62.17l3.11-5.94zM224.98 204.61c-.61.64-2.85 2-4 2l-34.72-.16c-1.56-.58-2.96-4.78-2.44-6.33s2.47-2.92 4.98-4.23c5.15-2.67-1.84-18.35-6.64-27.31-6.46-.02-13.16-.09-18.69.63-1.45 1.06-4.31 2.54-6.55 2.53-1.2 0-1.88 3.33-2.53 4.41L151 181.8c-2.46 4.1-2.96 9.32-1.33 13.6l5.37.67 5.27 5.1-4.2 2.84-.36-5.12-7.26-1.24c-2.08-.35-3.99-4.12-3.18-6.5l8.09-23.75 32.45.1 8.82 24.41c.35.98.45 3.83-.26 4.52-2.93 2.85-8.48 1.88-8.5 2.9l-.1 5.2 39.17.1ZM114.22 71.96l-14.14.26c-8.81-.32-9.58 4.37-18.86 7.54l-2.86 7.17c-9.15 1.54-.23 10.28-8.09 16.81l-.75 11.58c-.32 4.94 2.57 10.16 3.59 15.04.79 3.77.53 7.35 3.31 10.68l4.61 5.52c1.46 1.75 2.31 3 3.78 5.59l8.38 2.35c2.06.58 2.95 1.38 4.45 3.72 2.45.54 7.93-.08 10.48-1.41l6.73-3.51c2.31-8.99 1.34-24.79-2.34-26.74-1.36-.72-4.38-.69-5.94-.77l-5.49-3.94c.42-2.8 3.97-8.08 7.73-8.13l33.21-.42 4.25 6.35-7.77 7.06-.9 13.88-.95 19.93c-.69 1.71-4.55 2.74-6.46 3.39-4.57 1.53-8.46 2.62-13.21 2.96l-13.14.94c-6.43.46-12.68-.37-19.03-1.91-1.34-.33-4.45.63-5.31-.33-.98-1.11-2.35-3.23-2.21-4.49 18.89 8.83 37.37 5.43 57.19-.53-.49-11.4-.65-21.43-.3-32.74.21-6.74 12.39-3.88 7.49-10.98l-36.71.02.28 4.74c.08 1.32 7.46-.07 10.39 2.6 1.19 1.09 2.32 4.45 2.33 6.19l.07 20.31c.01 3.61-2.41 6.87-6.08 7.95-21.45 6.32-38.48-10.04-42.67-32.33-2.57-13.69-1.74-27.44 4.56-39.87 7.65-14.99 25.77-21.36 40.38-14.49Z" class="cls-1"/>
    <path d="m133.78 85.54-.72-6.93c-.43-4.14-.67-7.39-1.63-11.5-23.05-6.4-46.2-7.13-64.6 8.32-21.41 17.97-23.07 57.12-2.06 77.24 3.26 3.12 7.31 5.54 10.3 8.51-4.88.36-12.52-4.87-14.77-11.13l-3.9-2.79c-7.36-12.75-8.68-26.86-8.4-41.12.05-2.37-1.15-4.28 1.38-6.4 2.86-2.4-.3-5.11 3.61-11.09l5.55-8.48c2.35-3.59 5.97-6.23 8.97-9.05s5.03-3.97 9.23-4.49c6.24-.77 13.04-5.19 19.49-5.13l25.7.24 9.64 4.54c3.21 1.51 3.38 12.3 2.22 19.26ZM205.55 172.69l-24.79-68.19 2.53.24c.56.11.11 2.33.37 2.98l5.63 14.32 3.11 6.62 2.84 10.25c1.21 4.37 4.61 7.15 5.55 11.27l3.36 14.8 2.65 6.01zM156.14 204.49l-.95 2.07-29.45.07-2.7-2.1zM180.79 103.86l-2.86-6.29-7.5 1.95-5.47 12.95c.45-3.62 1.88-9.91 3.27-14.19l11.39-2.13zM154.11 140.96l1.34-11.82h1.75c.47 0 1.23-1.58 1.36-2.13l1.99-8.42 4.64-4.92-9.26 23.99z" class="cls-1"/>
    <path d="M134.07 87.43c1.46.47 2.99 2.29 3.15 3.62.14 1.14-2 3.54-3.16 3.78-2.05.43-5.03.09-6.56-.61-1.44-.67-1.16-5.12-1.78-6.63-3.29-7.98-8.88-9.77-9.46-14.45 6.04 3.47 10.87 11.61 12.55 18.16.47.96 3.91 1.82 4.53.96.75-1.03.93-3.48.73-4.82ZM122.13 204.53l-2.54-1.02c-.52-.21-.49-2.26-.23-2.93 1.39-3.54 6.87-5.97 11.23-5.12l3.54-7.21 6.78-15.77c2.49-5.79 3.05-10.35 6.84-18.85l6.73-12.28-18.45 48.12c-2.3 5.99-7.54 9.51-13.97 9.31l.06 5.76ZM225.98 198.89c-5.49-.29-11.05-2.07-12.89-7.44 1.55.27 3.09 1.65 4.77 3.35l6.15 1.92c.8.25 1.98 1.43 1.98 2.17ZM213.29 190.52c-.26.28-1.7-1.43-1.85-1.87l-4.73-13.84 4.37 7.81c1.34 2.84 3.29 5.2 2.21 7.91ZM225.99 203.65v-3.97c.81-.48 2.03 1.4 2.16 2.35.1.73-1.48 1.52-2.16 1.62M183.28 159.77l-27.55-.02 13.92-38.98z" class="cls-1"/>
  </g>
</svg>
