<?xml version="1.0" encoding="UTF-8"?>
<svg version="1.1" xmlns="http://www.w3.org/2000/svg" width="768" height="237">
<path d="M0 0 C4.49811479 2.9440786 8.43532299 6.41465092 12.375 10.0625 C12.705 4.4525 13.035 -1.1575 13.375 -6.9375 C38.8911181 -9.74525817 38.8911181 -9.74525817 45.99267578 -5.29833984 C50.32435863 -0.97871457 53.18387868 4.21433381 56.01171875 9.59619141 C57.99159844 13.17798665 60.45775867 16.23397497 63.0625 19.375 C63.95404449 20.49432787 64.84339488 21.61540708 65.73046875 22.73828125 C66.16536621 23.28436035 66.60026367 23.83043945 67.04833984 24.39306641 C69.33676381 27.27275781 71.60435224 30.16878906 73.875 33.0625 C75.69 35.3725 77.505 37.6825 79.375 40.0625 C83.005 44.6825 86.635 49.3025 90.375 54.0625 C90.375 33.9325 90.375 13.8025 90.375 -6.9375 C101.265 -6.9375 112.155 -6.9375 123.375 -6.9375 C124.17114616 7.64736241 124.64780918 22.20971783 124.9375 36.8125 C124.98085521 38.88932846 125.02447376 40.96615143 125.06835938 43.04296875 C125.17359331 48.04942152 125.27531741 53.05593375 125.375 58.0625 C125.68156525 57.2560479 125.68156525 57.2560479 125.99432373 56.43330383 C130.5483484 44.45705046 135.11153929 32.48449198 139.74023438 20.53686523 C140.33884322 18.98963315 140.93580276 17.44176212 141.53125 15.89331055 C142.41809893 13.58755111 143.31006587 11.28382886 144.203125 8.98046875 C144.46361633 8.30018112 144.72410767 7.61989349 144.99249268 6.91899109 C146.86974621 2.1007095 149.0383493 -2.2641986 151.375 -6.9375 C162.595 -6.9375 173.815 -6.9375 185.375 -6.9375 C190.98783547 4.28817095 190.98783547 4.28817095 192.6640625 9.43359375 C193.04312744 10.57272217 193.42219238 11.71185059 193.81274414 12.88549805 C194.20453857 14.07828369 194.59633301 15.27106934 195 16.5 C200.04321657 31.51342423 205.28467278 46.88184556 212.375 61.0625 C212.375 38.9525 212.375 16.8425 212.375 -5.9375 C225.3709718 -9.83629154 225.3709718 -9.83629154 231.59375 -8.43945312 C235.08343534 -7.80964334 238.52772167 -7.72490032 242.0625 -7.65625 C242.80145508 -7.63784058 243.54041016 -7.61943115 244.30175781 -7.60046387 C246.65942819 -7.54201846 249.01717248 -7.48918768 251.375 -7.4375 C281.42311873 -6.7666991 281.42311873 -6.7666991 288.8125 -4.0625 C289.78574219 -3.70929687 290.75898437 -3.35609375 291.76171875 -2.9921875 C294.74266447 -1.78911523 297.56590413 -0.49810882 300.375 1.0625 C301.035 -1.2475 301.695 -3.5575 302.375 -5.9375 C315.14475223 -5.99974009 327.91373609 -6.00906156 340.68353271 -5.94995117 C342.41533985 -5.94193955 344.1471517 -5.93486499 345.87896729 -5.92895508 C350.31439328 -5.91215723 354.7479691 -5.86993773 359.18261719 -5.78390503 C361.12805201 -5.75100534 363.07383817 -5.74146725 365.01953125 -5.73266602 C377.3394849 -5.4331305 387.36391292 -1.38227107 396.375 7.0625 C399.14987509 9.97681605 401.80116269 12.96968732 404.375 16.0625 C405.035 15.381875 405.695 14.70125 406.375 14 C407.37151517 13.01728698 408.37189927 12.0384899 409.375 11.0625 C409.90996094 10.53140625 410.44492187 10.0003125 410.99609375 9.453125 C424.45291105 -3.16444993 441.6639865 -9.76503227 460.00439453 -9.52954102 C478.69870249 -8.7053756 493.85949799 1.14622568 506.52734375 14.296875 C518.76590641 28.29722691 521.29258034 44.33556899 520.59716797 62.30664062 C520.12570351 68.15487226 518.17500567 72.91387496 515.375 78.0625 C514.83230469 79.10664062 514.28960938 80.15078125 513.73046875 81.2265625 C505.18833642 96.7682299 492.2869353 107.91744811 475.13671875 113.02734375 C456.07313048 117.71227994 438.28417807 115.08794167 421.375 105.0625 C415.13788133 100.77816343 410.06321327 95.98445361 405.375 90.0625 C404.91351562 90.63097656 404.45203125 91.19945313 403.9765625 91.78515625 C394.08749778 103.49177635 382.64577451 110.15365319 367.375 112.0625 C367.045 149.3525 366.715 186.6425 366.375 225.0625 C357.465 225.0625 348.555 225.0625 339.375 225.0625 C334.71526837 219.82030191 330.19208047 214.719265 325.9375 209.1875 C324.98913767 207.96808347 324.03990888 206.74934032 323.08984375 205.53125 C322.6294873 204.94085938 322.16913086 204.35046875 321.69482422 203.7421875 C319.12189985 200.46772956 316.46989766 197.25863234 313.82421875 194.04296875 C310.8077136 190.37216583 307.8090009 186.68713782 304.8125 183 C304.29445801 182.36336426 303.77641602 181.72672852 303.24267578 181.07080078 C298.92440526 175.75715065 294.65273455 170.40966819 290.375 165.0625 C290.045 184.8625 289.715 204.6625 289.375 225.0625 C273.205 225.0625 257.035 225.0625 240.375 225.0625 C238.395 219.7825 236.415 214.5025 234.375 209.0625 C212.595 208.5675 212.595 208.5675 190.375 208.0625 C190.045 210.0425 189.715 212.0225 189.375 214.0625 C188.055 217.6925 186.735 221.3225 185.375 225.0625 C168.875 225.0625 152.375 225.0625 135.375 225.0625 C135.045 209.8825 134.715 194.7025 134.375 179.0625 C127.95755122 192.50321436 127.95755122 192.50321436 121.57128906 205.95874023 C120.76219733 207.63840268 119.95204825 209.31755639 119.140625 210.99609375 C118.52356689 212.31631531 118.52356689 212.31631531 117.89404297 213.66320801 C117.28568604 214.9116449 117.28568604 214.9116449 116.66503906 216.18530273 C116.31862366 216.91144272 115.97220825 217.6375827 115.61529541 218.38572693 C114.375 220.0625 114.375 220.0625 112.375 220.79772949 C110.09581546 221.09945992 107.90903536 221.17489766 105.609375 221.16015625 C104.71992188 221.15693359 103.83046875 221.15371094 102.9140625 221.15039062 C101.99367188 221.14201172 101.07328125 221.13363281 100.125 221.125 C99.18914062 221.12048828 98.25328125 221.11597656 97.2890625 221.11132812 C94.98430959 221.09956918 92.67968773 221.08313426 90.375 221.0625 C89.93800781 220.05219727 89.93800781 220.05219727 89.4921875 219.02148438 C88.12437422 215.86648111 86.74969697 212.71450968 85.375 209.5625 C84.91738281 208.50417969 84.45976562 207.44585937 83.98828125 206.35546875 C80.08735814 197.43143916 75.79005297 188.74132875 71.375 180.0625 C71.34994385 181.1362085 71.3248877 182.20991699 71.29907227 183.31616211 C71.20421717 187.3362832 71.10419392 191.35626256 71.00268555 195.3762207 C70.95962968 197.10925966 70.91793686 198.84233309 70.87768555 200.57543945 C70.81926417 203.08034612 70.75578526 205.58508393 70.69140625 208.08984375 C70.67469376 208.85272202 70.65798126 209.61560028 70.64076233 210.40159607 C70.53729037 214.2410301 70.30237494 218.02192947 69.86216736 221.83863831 C69.72572768 223.03180585 69.72572768 223.03180585 69.58653164 224.2490778 C69.48182348 225.14672179 69.48182348 225.14672179 69.375 226.0625 C54.61488648 226.10925564 39.85478278 226.14450631 25.09461021 226.16612434 C18.2409454 226.17642952 11.38732665 226.19047532 4.53369141 226.21337891 C-2.07986726 226.23546963 -8.69339064 226.24706763 -15.30698776 226.25225449 C-17.83076099 226.25595112 -20.35453159 226.26316965 -22.87828445 226.27396011 C-26.41191528 226.28846812 -29.94534811 226.2904782 -33.47900391 226.28955078 C-35.04562271 226.30033661 -35.04562271 226.30033661 -36.64389038 226.31134033 C-41.70758617 226.29695034 -45.88567637 226.09085793 -50.625 224.0625 C-50.955 222.0825 -51.285 220.1025 -51.625 218.0625 C-52.38941406 218.44921875 -53.15382812 218.8359375 -53.94140625 219.234375 C-70.7051534 227.3842593 -89.42300825 232.07863885 -107.6875 225.9375 C-123.24630948 219.96508894 -123.24630948 219.96508894 -128.625 214.0625 C-128.68558594 214.77277344 -128.74617188 215.48304688 -128.80859375 216.21484375 C-128.93427734 217.59349609 -128.93427734 217.59349609 -129.0625 219 C-129.14371094 219.91652344 -129.22492188 220.83304688 -129.30859375 221.77734375 C-129.625 224.0625 -129.625 224.0625 -130.625 225.0625 C-132.47869611 225.14987645 -134.33567541 225.16948153 -136.19140625 225.16015625 C-137.31611328 225.15693359 -138.44082031 225.15371094 -139.59960938 225.15039062 C-140.78361328 225.14201172 -141.96761719 225.13363281 -143.1875 225.125 C-144.37537109 225.12048828 -145.56324219 225.11597656 -146.78710938 225.11132812 C-149.73312226 225.09949675 -152.67903681 225.08301287 -155.625 225.0625 C-155.955 223.0825 -156.285 221.1025 -156.625 219.0625 C-157.3984375 219.46082031 -158.171875 219.85914063 -158.96875 220.26953125 C-160.0103125 220.79933594 -161.051875 221.32914063 -162.125 221.875 C-163.1459375 222.39707031 -164.166875 222.91914063 -165.21875 223.45703125 C-172.00732483 226.65669209 -177.6217038 228.62737107 -185.1875 228.5625 C-185.96617432 228.55750488 -186.74484863 228.55250977 -187.54711914 228.54736328 C-204.54572163 228.0455212 -219.58522451 219.44965448 -231.27197266 207.50927734 C-244.83944492 193.0017276 -248.29711545 178.04075434 -248.0234375 158.84765625 C-247.7112777 150.7370363 -246.01613014 144.98212926 -241.625 138.0625 C-241.27695313 137.49901855 -240.92890625 136.93553711 -240.5703125 136.35498047 C-234.47332478 126.58520626 -227.98205192 119.74610851 -218.625 113.0625 C-226.545 112.7325 -234.465 112.4025 -242.625 112.0625 C-242.625 73.1225 -242.625 34.1825 -242.625 -5.9375 C-231.735 -6.2675 -220.845 -6.5975 -209.625 -6.9375 C-209.625 22.4325 -209.625 51.8025 -209.625 82.0625 C-196.755 82.0625 -183.885 82.0625 -170.625 82.0625 C-170.625 53.0225 -170.625 23.9825 -170.625 -5.9375 C-140.265 -5.9375 -109.905 -5.9375 -78.625 -5.9375 C-78.295 -1.6475 -77.965 2.6425 -77.625 7.0625 C-76.43970703 6.20978516 -76.43970703 6.20978516 -75.23046875 5.33984375 C-51.5494104 -11.12631153 -25.65996188 -14.48987193 0 0 Z M434.25 31.76953125 C427.53804543 39.97769236 425.48614516 48.66289842 426.375 59.0625 C428.50520818 68.032473 433.77630712 74.91304655 441.4375 79.9375 C448.99658003 84.2219404 456.49011882 85.50988609 465.02734375 83.41015625 C474.31557723 80.07555163 481.02956991 73.89410286 485.375 65.0625 C488.72117372 56.45805329 488.18580672 48.21237884 484.7578125 39.73828125 C480.50599756 31.51089923 474.14425131 25.99863325 465.375 23.0625 C453.95072069 20.18942976 442.61526512 23.57341671 434.25 31.76953125 Z M-54.625 30.0625 C-60.95551247 36.63290557 -64.10007965 44.1549622 -64.68359375 53.23046875 C-64.49470363 62.36015805 -60.25106961 70.50607015 -53.80859375 76.8515625 C-47.22378395 82.2524368 -39.34226452 84.70284216 -30.84375 84.34375 C-21.86101865 83.20509391 -14.37851338 78.91105005 -8.8125 71.75 C-3.85979924 64.0866995 -2.59825897 56.07893848 -3.625 47.0625 C-5.58176549 38.6447164 -10.53716215 31.73531546 -17.53515625 26.68359375 C-30.11081025 19.68564255 -43.48486973 21.34664678 -54.625 30.0625 Z M245.375 23.0625 C245.375 32.6325 245.375 42.2025 245.375 52.0625 C249.27697602 53.36315867 252.99627552 53.24671283 257.0625 53.25 C258.22942383 53.26836914 258.22942383 53.26836914 259.41992188 53.28710938 C267.29472833 53.30681281 274.08051144 52.18592092 280.375 47.0625 C283.77007943 43.21474332 283.9088663 39.37873278 283.703125 34.43359375 C283.1893023 30.72061304 282.3687574 29.36003475 279.375 27.0625 C268.3653683 22.74963601 257.07215987 23.0625 245.375 23.0625 Z M-138.625 25.0625 C-138.625 29.6825 -138.625 34.3025 -138.625 39.0625 C-124.435 39.0625 -110.245 39.0625 -95.625 39.0625 C-93.975 34.4425 -92.325 29.8225 -90.625 25.0625 C-106.465 25.0625 -122.305 25.0625 -138.625 25.0625 Z M334.375 25.0625 C334.375 43.8725 334.375 62.6825 334.375 82.0625 C355.95375815 83.47204634 355.95375815 83.47204634 373.9609375 74.59765625 C379.84934834 68.49381574 381.47867854 61.4382311 381.8125 53.125 C381.55747884 44.49863216 378.94749362 36.74525147 372.94921875 30.4296875 C362.6415534 21.47762082 346.31696334 25.0625 334.375 25.0625 Z M167.375 41.0625 C165.86644661 44.6631459 164.36964176 48.26855959 162.875 51.875 C162.23111328 53.41124023 162.23111328 53.41124023 161.57421875 54.97851562 C161.16816406 55.96142578 160.76210938 56.94433594 160.34375 57.95703125 C159.96669922 58.86300049 159.58964844 59.76896973 159.20117188 60.70239258 C158.20980087 63.11766525 158.20980087 63.11766525 158.375 66.0625 C164.975 66.0625 171.575 66.0625 178.375 66.0625 C176.46225892 60.32427676 174.53804757 54.67475039 172.3125 49.0625 C172.05662109 48.39605469 171.80074219 47.72960938 171.53710938 47.04296875 C170.27970726 43.36811714 170.27970726 43.36811714 167.375 41.0625 Z M46.375 52.0625 C46.045 69.8825 45.715 87.7025 45.375 106.0625 C51.19589237 106.90392684 51.19589237 106.90392684 56.99609375 107.37890625 C58.18041992 107.44174805 58.18041992 107.44174805 59.38867188 107.50585938 C60.18853516 107.54517578 60.98839844 107.58449219 61.8125 107.625 C63.05290039 107.68977539 63.05290039 107.68977539 64.31835938 107.75585938 C66.33709549 107.86088033 68.35602951 107.96208559 70.375 108.0625 C72.12247018 111.80340698 73.86953627 115.54450238 75.61624146 119.2857666 C76.24694114 120.63662374 76.87769876 121.98745384 77.5085144 123.33825684 C81.02388908 130.8665379 84.53384053 138.39723054 88.0234375 145.9375 C88.31319962 146.56323914 88.60296173 147.18897827 88.90150452 147.8336792 C90.27690166 150.80397114 91.65085749 153.77491153 93.0222168 156.74707031 C96.02945533 163.24390902 99.12823487 169.68182281 102.375 176.0625 C105.62450534 172.24911556 107.47714163 167.85137175 109.54296875 163.3359375 C109.94147537 162.47424957 110.33998199 161.61256165 110.75056458 160.72476196 C112.02563416 157.96435782 113.29399804 155.20092729 114.5625 152.4375 C115.39607979 150.63262559 116.23006048 148.82793627 117.06445312 147.0234375 C122.26926357 135.74756197 127.36387594 124.42569183 132.375 113.0625 C129.34549498 111.54774749 126.25485342 112.10984201 122.9453125 112.23828125 C96.65037487 112.87898602 96.65037487 112.87898602 90.7734375 108.375 C88.12525784 105.57945046 86.22909219 102.415632 84.45263672 99.01318359 C82.66254701 95.77285355 80.28166125 93.03778697 77.9375 90.1875 C77.0293473 89.02593601 76.1244334 87.86183305 75.22265625 86.6953125 C71.6325445 82.09041259 67.93088048 77.57724957 64.23535156 73.05688477 C60.00739559 67.87326889 55.86822338 62.62504306 51.80078125 57.31445312 C49.49576709 54.2233091 49.49576709 54.2233091 46.375 52.0625 Z M-138.625 69.0625 C-138.625 73.3525 -138.625 77.6425 -138.625 82.0625 C-133.84188199 82.08748214 -129.05880315 82.10549163 -124.27563477 82.11743164 C-122.65323219 82.12241672 -121.030834 82.1292072 -119.40844727 82.13793945 C-110.42593881 82.1850263 -101.55850061 82.15743092 -92.625 81.0625 C-93.34340092 77.26338882 -94.35055405 73.71591173 -95.625 70.0625 C-109.96037991 68.94442023 -124.25236488 68.96322623 -138.625 69.0625 Z M296.75 75.5625 C295.96625 76.3875 295.1825 77.2125 294.375 78.0625 C295.35066112 79.23209987 296.330625 80.39811177 297.3125 81.5625 C297.85777344 82.2121875 298.40304687 82.861875 298.96484375 83.53125 C299.43019531 84.0365625 299.89554688 84.541875 300.375 85.0625 C300.705 85.0625 301.035 85.0625 301.375 85.0625 C301.375 81.1025 301.375 77.1425 301.375 73.0625 C299.01221264 72.83261494 299.01221264 72.83261494 296.75 75.5625 Z M245.375 82.0625 C245.375 91.9625 245.375 101.8625 245.375 112.0625 C242.735 112.0625 240.095 112.0625 237.375 112.0625 C235.36779077 112.34924418 233.36321313 112.66485737 231.375 113.0625 C231.60461426 113.63653564 231.83422852 114.21057129 232.07080078 114.80200195 C239.83886719 134.22216797 247.60693359 153.64233398 255.375 173.0625 C255.705 173.0625 256.035 173.0625 256.375 173.0625 C256.705 151.2825 257.035 129.5025 257.375 107.0625 C265.79 106.5675 265.79 106.5675 274.375 106.0625 C272.84842397 102.24605993 271.73315494 99.89861579 269.40625 96.70703125 C268.83519531 95.92005859 268.26414062 95.13308594 267.67578125 94.32226562 C267.08152344 93.51466797 266.48726562 92.70707031 265.875 91.875 C265.28074219 91.05580078 264.68648437 90.23660156 264.07421875 89.39257812 C260.93941329 85.04659096 260.93941329 85.04659096 257.375 81.0625 C255.26750534 80.78167656 255.26750534 80.78167656 252.9375 80.875 C252.15503906 80.88144531 251.37257813 80.88789062 250.56640625 80.89453125 C248.19700323 80.98694331 248.19700323 80.98694331 245.375 82.0625 Z M8 98.875 C7.20851562 99.58269531 6.41703125 100.29039063 5.6015625 101.01953125 C3.81773728 102.65626912 2.08686204 104.35063796 0.375 106.0625 C4.665 106.0625 8.955 106.0625 13.375 106.0625 C13.375 102.4325 13.375 98.8025 13.375 95.0625 C11.30962969 95.0625 9.42597197 97.59439411 8 98.875 Z M146.375 96.0625 C145.055 99.3625 143.735 102.6625 142.375 106.0625 C151.19387663 107.02895223 159.3767618 107.0625 168.375 107.0625 C168.375 129.5025 168.375 151.9425 168.375 175.0625 C170.04038375 172.56442437 171.12199455 170.48017006 172.25097656 167.73730469 C172.61185364 166.86499207 172.97273071 165.99267944 173.34454346 165.09393311 C173.73100037 164.15027893 174.11745728 163.20662476 174.515625 162.234375 C175.12262238 160.76257782 175.12262238 160.76257782 175.74188232 159.26104736 C177.03929427 156.1127733 178.33210716 152.9626322 179.625 149.8125 C180.48018813 147.73686353 181.33565392 145.66134143 182.19140625 143.5859375 C183.84470532 139.57472056 185.4889926 135.559983 187.12695312 131.54248047 C188.50799941 128.15844863 189.91346897 124.78781786 191.35742188 121.43017578 C191.64703796 120.74409241 191.93665405 120.05800903 192.23504639 119.35113525 C192.98209854 117.58300137 193.74191711 115.82027577 194.50292969 114.05810547 C195.93980516 109.12236582 194.5799585 105.52105578 192.375 101.0625 C191.715 99.4125 191.055 97.7625 190.375 96.0625 C175.855 96.0625 161.335 96.0625 146.375 96.0625 Z M-78.625 98.0625 C-78.955 102.3525 -79.285 106.6425 -79.625 111.0625 C-95.465 111.5575 -95.465 111.5575 -111.625 112.0625 C-111.71232686 123.97751787 -111.71232686 123.97751787 -111.77148438 135.89257812 C-111.78938469 140.75571572 -111.81051043 145.61868309 -111.85131836 150.48168945 C-111.88402862 154.40447284 -111.90187748 158.32707354 -111.90963173 162.24998283 C-111.91515439 163.74304007 -111.92593873 165.23608785 -111.94219017 166.72906685 C-111.96412048 168.82813882 -111.96696056 170.9264658 -111.96557617 173.02563477 C-111.97223801 174.21810318 -111.97889984 175.41057159 -111.98576355 176.63917542 C-111.35348226 182.63896137 -108.92100273 187.76649727 -104.625 192.0625 C-98.11424756 197.10627278 -90.52726845 196.95796734 -82.625 196.0625 C-76.38389365 194.39359656 -72.17549661 190.35753128 -68.625 185.0625 C-67.44480417 181.5219125 -67.43194007 178.60994792 -67.3527832 174.87231445 C-67.32846977 173.7790258 -67.32846977 173.7790258 -67.30366516 172.66365051 C-67.16350166 165.94427573 -67.08534387 159.22361331 -67.02474689 152.50309467 C-66.98377704 147.99162805 -66.92341221 143.48233239 -66.81567383 138.97192383 C-66.71171585 134.60453741 -66.65731323 130.23908609 -66.63728905 125.8705349 C-66.62139469 124.21060855 -66.58824961 122.55075008 -66.53713417 120.89153481 C-66.04907788 111.47758372 -66.04907788 111.47758372 -69.88485718 103.21444702 C-73.81240326 99.69564799 -73.81240326 99.69564799 -78.625 98.0625 Z M290.375 113.0625 C294.30705143 118.38413928 298.36341468 123.57467729 302.5625 128.6875 C306.71846739 133.77334137 310.8337435 138.88503644 314.875 144.0625 C319.04034817 149.38906388 323.25148808 154.67699347 327.5 159.9375 C328.35368164 161.00097656 328.35368164 161.00097656 329.22460938 162.0859375 C330.58470754 163.76400231 331.97667489 165.41615392 333.375 167.0625 C333.705 167.0625 334.035 167.0625 334.375 167.0625 C334.375 148.9125 334.375 130.7625 334.375 112.0625 C329.71375 112.041875 325.0525 112.02125 320.25 112 C318.09186768 111.98634399 318.09186768 111.98634399 315.89013672 111.97241211 C307.32844403 111.95433963 298.90346888 112.32505099 290.375 113.0625 Z M-208.625 146.0625 C-214.50315222 154.71888337 -215.73502381 162.63698223 -214.625 173.0625 C-211.70964116 182.47621596 -206.04841891 189.01355005 -197.796875 194.21484375 C-190.67341159 197.57526018 -181.04406356 197.36563146 -173.64453125 195.18359375 C-168.17673866 192.67717748 -163.81892869 189.21692964 -160.625 184.0625 C-160.625 183.4025 -160.625 182.7425 -160.625 182.0625 C-163.33901294 180.70549353 -165.47346316 180.9501139 -168.5078125 180.96484375 C-169.55855957 180.96734131 -170.60930664 180.96983887 -171.69189453 180.97241211 C-173.70065674 180.98606812 -173.70065674 180.98606812 -175.75 181 C-182.123125 181.0309375 -182.123125 181.0309375 -188.625 181.0625 C-188.625 172.4825 -188.625 163.9025 -188.625 155.0625 C-174.105 155.0625 -159.585 155.0625 -144.625 155.0625 C-144.625 149.4525 -144.625 143.8425 -144.625 138.0625 C-149.06312402 140.76783638 -149.06312402 140.76783638 -153.47949219 143.50830078 C-155.171875 144.5078125 -155.171875 144.5078125 -158.625 146.0625 C-161.67846177 145.24824353 -162.90284653 143.81696121 -165.3125 141.6875 C-172.05902539 136.03183071 -178.65286231 134.36704689 -187.4140625 134.68359375 C-196.03859263 135.70133027 -202.90397167 139.5532411 -208.625 146.0625 Z M-33.625 138.0625 C-33.625 151.2625 -33.625 164.4625 -33.625 178.0625 C-29.01355231 174.10983055 -25.09410047 170.59744972 -21.3125 166 C-20.84956543 165.44562256 -20.38663086 164.89124512 -19.90966797 164.32006836 C-15.77431196 159.32967867 -11.82214132 154.2045381 -7.9140625 149.03515625 C-6.26570727 146.89454477 -4.59607882 144.85137196 -2.8359375 142.80859375 C-0.4159586 140.39044654 -0.4159586 140.39044654 -0.625 138.0625 C-11.515 138.0625 -22.405 138.0625 -33.625 138.0625 Z M212.375 151.0625 C208.42106919 160.30000207 204.86720486 169.6416683 201.375 179.0625 C208.635 179.0625 215.895 179.0625 223.375 179.0625 C221.16526633 171.49766609 221.16526633 171.49766609 218.55078125 164.1484375 C218.09155273 162.97861328 218.09155273 162.97861328 217.62304688 161.78515625 C217.15995117 160.62306641 217.15995117 160.62306641 216.6875 159.4375 C216.36716797 158.62410156 216.04683594 157.81070313 215.71679688 156.97265625 C214.93980309 155.00117949 214.15793147 153.03162627 213.375 151.0625 C213.045 151.0625 212.715 151.0625 212.375 151.0625 Z M34.375 153.0625 C28.24214851 160.15616489 22.13120161 167.24803046 16.32421875 174.61328125 C13.36427563 178.33248833 10.30801523 181.97182326 7.2578125 185.6171875 C5.63511309 187.72467677 4.44505057 189.6408066 3.375 192.0625 C10.43508725 194.2601252 17.01857144 194.2970459 24.375 194.1875 C25.53128906 194.17847656 26.68757813 194.16945312 27.87890625 194.16015625 C30.71115647 194.13674922 33.54296619 194.10395995 36.375 194.0625 C36.42447953 188.86638779 36.46075727 183.67041309 36.48486328 178.47412109 C36.49491384 176.70684418 36.50855642 174.93958387 36.52587891 173.17236328 C36.55016885 170.63049215 36.56149255 168.08884111 36.5703125 165.546875 C36.58063507 164.75819031 36.59095764 163.96950562 36.60159302 163.15692139 C36.60237709 159.31360336 36.56164676 156.31598826 34.375 153.0625 Z " fill="#000000" transform="translate(247.625,8.9375)"/>
</svg>
